<svg xmlns="http://www.w3.org/2000/svg" viewBox="0 0 800 1000" role="img" aria-label="Garderoba dopasowana do wnęki i pełnej wysokości pomieszczenia — szkic poglądowy">
<title>Garderoba dopasowana do wnęki i pełnej wysokości pomieszczenia — szkic poglądowy</title>
<defs>
<linearGradient id="wall" x1="0" y1="0" x2="0" y2="1">
  <stop offset="0" stop-color="#FAF8F3"/><stop offset="1" stop-color="#F2EEE5"/>
</linearGradient>
<linearGradient id="ink" x1="0" y1="0" x2="0" y2="1">
  <stop offset="0" stop-color="#1E4034"/><stop offset="1" stop-color="#17352D"/>
</linearGradient>
<linearGradient id="mirror" x1="0" y1="0" x2="1" y2="1">
  <stop offset="0" stop-color="#D3D8D1"/><stop offset=".45" stop-color="#C3CBC4"/>
  <stop offset=".55" stop-color="#DDE2DA"/><stop offset="1" stop-color="#BEC7BF"/>
</linearGradient>
<pattern id="grain" width="26" height="420" patternUnits="userSpaceOnUse">
  <path d="M6 0 C 9 100, 3 220, 7 420" stroke="#B7A281" stroke-width="1" fill="none" opacity=".22"/>
  <path d="M15 0 C 12 140, 18 260, 14 420" stroke="#B7A281" stroke-width="1" fill="none" opacity=".15"/>
  <path d="M22 0 C 25 90, 20 300, 24 420" stroke="#B7A281" stroke-width=".8" fill="none" opacity=".18"/>
</pattern>
<pattern id="hatch" width="10" height="10" patternUnits="userSpaceOnUse">
  <path d="M-2 12 L12 -2" stroke="#2B2D2A" stroke-width="1.3" opacity=".42" fill="none"/>
</pattern>
</defs>
<rect width="800" height="1000" fill="url(#wall)"/>
<rect x="0" y="916" width="800" height="3" fill="#CFC9BA" /><rect x="0" y="919" width="800" height="200" fill="#E9E3D5" /><line x1="0" y1="919" x2="800" y2="919" stroke="#2B2D2A" stroke-opacity=".12"/>
<rect x="0" y="0" width="92" height="916" fill="#EAE4D6" />
<rect x="708" y="0" width="92" height="916" fill="#EAE4D6" />
<line x1="92" y1="0" x2="92" y2="916" stroke="#2B2D2A" stroke-opacity=".16"/>
<line x1="708" y1="0" x2="708" y2="916" stroke="#2B2D2A" stroke-opacity=".16"/>
<rect x="92" y="40" width="616" height="876" fill="#43403A" />
<rect x="98" y="46" width="198" height="864" fill="#FAF8F3" /><rect x="98" y="46" width="198" height="864" fill="none" stroke="#2B2D2A" stroke-opacity=".14" stroke-width="1"/>
<line x1="276" y1="420" x2="276" y2="530" stroke="#2B2D2A" stroke-width="3" stroke-linecap="round" opacity=".8"/>
<rect x="301" y="46" width="198" height="864" fill="#FAF8F3" /><rect x="301" y="46" width="198" height="864" fill="none" stroke="#2B2D2A" stroke-opacity=".14" stroke-width="1"/>
<line x1="316" y1="420" x2="316" y2="530" stroke="#2B2D2A" stroke-width="3" stroke-linecap="round" opacity=".8"/>
<rect x="504" y="46" width="198" height="864" fill="#F6F2E8" />
<rect x="504" y="46" width="198" height="864" fill="#2B2D2A" opacity=".05"/>
<line x1="518" y1="150" x2="688" y2="150" stroke="#2B2D2A" stroke-width="5" stroke-linecap="round" opacity=".75"/>
<g stroke="#2B2D2A" stroke-width="2.4" fill="none" opacity=".6"><path d="M544 152 v10 M524 196 L544 164 L564 196 Z"/></g>
<g stroke="#2B2D2A" stroke-width="2.4" fill="none" opacity=".6"><path d="M596 152 v10 M576 196 L596 164 L616 196 Z"/></g>
<g stroke="#2B2D2A" stroke-width="2.4" fill="none" opacity=".6"><path d="M648 152 v10 M628 196 L648 164 L668 196 Z"/></g>
<rect x="512" y="300" width="182" height="6" fill="#CDBA9C" />
<rect x="512" y="380" width="182" height="6" fill="#CDBA9C" />
<rect x="512" y="460" width="182" height="6" fill="#CDBA9C" />
<rect x="524" y="252" width="34" height="44" fill="#8C968E" />
<rect x="524" y="416" width="60" height="40" fill="#D9C9AF" />
<rect x="512" y="560" width="182" height="100" fill="#D9C9AF" /><rect x="512" y="560" width="182" height="100" fill="url(#grain)" /><rect x="512" y="560" width="182" height="100" fill="none" stroke="#2B2D2A" stroke-opacity=".14" stroke-width="1"/>
<line x1="573.0" y1="588" x2="633.0" y2="588" stroke="#2B2D2A" stroke-width="3" stroke-linecap="round" opacity=".8"/>
<rect x="506" y="700" width="194" height="26" fill="#332F28" />
<rect x="514" y="704" width="44" height="18" fill="#E86C3B" />
<line x1="574" y1="704" x2="574" y2="722" stroke="#CDBA9C" stroke-width="3"/>
<line x1="596" y1="704" x2="596" y2="722" stroke="#CDBA9C" stroke-width="3"/>
<rect x="512" y="730" width="182" height="100" fill="#D9C9AF" /><rect x="512" y="730" width="182" height="100" fill="url(#grain)" /><rect x="512" y="730" width="182" height="100" fill="none" stroke="#2B2D2A" stroke-opacity=".14" stroke-width="1"/>
<line x1="573.0" y1="758" x2="633.0" y2="758" stroke="#2B2D2A" stroke-width="3" stroke-linecap="round" opacity=".8"/>
<rect x="512" y="835" width="182" height="70" fill="#D9C9AF" /><rect x="512" y="835" width="182" height="70" fill="url(#grain)" /><rect x="512" y="835" width="182" height="70" fill="none" stroke="#2B2D2A" stroke-opacity=".14" stroke-width="1"/>
<g stroke="#2B2D2A" stroke-opacity=".5" stroke-width="1.2" fill="none"><line x1="92" y1="26" x2="708" y2="26"/><line x1="92" y1="19" x2="92" y2="33"/><line x1="708" y1="19" x2="708" y2="33"/></g><text x="400.0" y="17" font-family="IBM Plex Mono, ui-monospace, Menlo, monospace" font-size="14" letter-spacing="1.5" fill="#2B2D2A" fill-opacity=".68" text-anchor="middle">1 980</text>
<g stroke="#2B2D2A" stroke-opacity=".5" stroke-width="1.2" fill="none"><line x1="760" y1="46" x2="760" y2="916"/><line x1="753" y1="46" x2="767" y2="46"/><line x1="753" y1="916" x2="767" y2="916"/></g><g transform="translate(751,481.0) rotate(-90)"><text x="0" y="0" font-family="IBM Plex Mono, ui-monospace, Menlo, monospace" font-size="14" letter-spacing="1.5" fill="#2B2D2A" fill-opacity=".68" text-anchor="middle">2 610</text></g>
<text x="98" y="972" font-family="IBM Plex Mono, ui-monospace, Menlo, monospace" font-size="13" letter-spacing="2" fill="#2B2D2A" fill-opacity=".4" text-anchor="start">IL. 03 — SZKIC POGLĄDOWY / DEMO</text>
</svg>