<svg xmlns="http://www.w3.org/2000/svg" viewBox="0 0 750 1000" role="img" aria-label="Zabudowa przedpokoju z ławką i miejscem na kurtki — szkic poglądowy">
<title>Zabudowa przedpokoju z ławką i miejscem na kurtki — szkic poglądowy</title>
<defs>
<linearGradient id="wall" x1="0" y1="0" x2="0" y2="1">
  <stop offset="0" stop-color="#FAF8F3"/><stop offset="1" stop-color="#F2EEE5"/>
</linearGradient>
<linearGradient id="ink" x1="0" y1="0" x2="0" y2="1">
  <stop offset="0" stop-color="#1E4034"/><stop offset="1" stop-color="#17352D"/>
</linearGradient>
<linearGradient id="mirror" x1="0" y1="0" x2="1" y2="1">
  <stop offset="0" stop-color="#D3D8D1"/><stop offset=".45" stop-color="#C3CBC4"/>
  <stop offset=".55" stop-color="#DDE2DA"/><stop offset="1" stop-color="#BEC7BF"/>
</linearGradient>
<pattern id="grain" width="26" height="420" patternUnits="userSpaceOnUse">
  <path d="M6 0 C 9 100, 3 220, 7 420" stroke="#B7A281" stroke-width="1" fill="none" opacity=".22"/>
  <path d="M15 0 C 12 140, 18 260, 14 420" stroke="#B7A281" stroke-width="1" fill="none" opacity=".15"/>
  <path d="M22 0 C 25 90, 20 300, 24 420" stroke="#B7A281" stroke-width=".8" fill="none" opacity=".18"/>
</pattern>
<pattern id="hatch" width="10" height="10" patternUnits="userSpaceOnUse">
  <path d="M-2 12 L12 -2" stroke="#2B2D2A" stroke-width="1" opacity=".25" fill="none"/>
</pattern>
</defs>
<rect width="750" height="1000" fill="url(#wall)"/>
<rect x="0" y="900" width="750" height="3" fill="#CFC9BA" /><rect x="0" y="903" width="750" height="200" fill="#E9E3D5" /><line x1="0" y1="903" x2="750" y2="903" stroke="#2B2D2A" stroke-opacity=".12"/>
<rect x="52" y="54" width="560" height="846" fill="#43403A" />
<rect x="58" y="60" width="220" height="834" fill="#D9C9AF" /><rect x="58" y="60" width="220" height="834" fill="url(#grain)" /><rect x="58" y="60" width="220" height="834" fill="none" stroke="#2B2D2A" stroke-opacity=".14" stroke-width="1"/>
<line x1="256" y1="420" x2="256" y2="530" stroke="#2B2D2A" stroke-width="3" stroke-linecap="round" opacity=".8"/>
<rect x="283" y="60" width="323" height="260" fill="url(#ink)" /><rect x="283" y="60" width="323" height="260" fill="none" stroke="#2B2D2A" stroke-opacity=".14" stroke-width="1"/>
<line x1="400" y1="296" x2="470" y2="296" stroke="#2B2D2A" stroke-width="3" stroke-linecap="round" opacity=".8"/>
<rect x="283" y="325" width="323" height="400" fill="#F6F2E8" />
<rect x="283" y="325" width="323" height="400" fill="#2B2D2A" opacity=".05"/>
<g stroke="#2B2D2A" stroke-width="3.4" opacity=".7" fill="none"><line x1="330" y1="392" x2="330" y2="420"/><circle cx="330" cy="426" r="6"/></g>
<g stroke="#2B2D2A" stroke-width="3.4" opacity=".7" fill="none"><line x1="420" y1="392" x2="420" y2="420"/><circle cx="420" cy="426" r="6"/></g>
<g stroke="#2B2D2A" stroke-width="3.4" opacity=".7" fill="none"><line x1="510" y1="392" x2="510" y2="420"/><circle cx="510" cy="426" r="6"/></g>
<rect x="283" y="620" width="323" height="16" fill="#CDBA9C" />
<rect x="283" y="646" width="323" height="120" fill="url(#ink)" /><rect x="283" y="646" width="323" height="120" fill="none" stroke="#2B2D2A" stroke-opacity=".14" stroke-width="1"/>
<line x1="400" y1="676" x2="470" y2="676" stroke="#2B2D2A" stroke-width="3" stroke-linecap="round" opacity=".8"/>
<rect x="283" y="771" width="323" height="123" fill="url(#ink)" /><rect x="283" y="771" width="323" height="123" fill="none" stroke="#2B2D2A" stroke-opacity=".14" stroke-width="1"/>
<line x1="400" y1="800" x2="470" y2="800" stroke="#2B2D2A" stroke-width="3" stroke-linecap="round" opacity=".8"/>
<circle cx="672" cy="300" r="54" fill="url(#mirror)" stroke="#2B2D2A" stroke-opacity=".25"/>
<rect x="652" y="620" width="40" height="60" fill="#E86C3B" opacity=".9"/>
<g stroke="#2B2D2A" stroke-opacity=".5" stroke-width="1.2" fill="none"><line x1="58" y1="32" x2="612" y2="32"/><line x1="58" y1="25" x2="58" y2="39"/><line x1="612" y1="25" x2="612" y2="39"/></g><text x="335.0" y="23" font-family="IBM Plex Mono, ui-monospace, Menlo, monospace" font-size="14" letter-spacing="1.5" fill="#2B2D2A" fill-opacity=".68" text-anchor="middle">1 660</text>
<g stroke="#E86C3B" stroke-opacity=".6" stroke-width="1.2" fill="none"><line x1="700" y1="620" x2="700" y2="900"/><line x1="693" y1="620" x2="707" y2="620"/><line x1="693" y1="900" x2="707" y2="900"/></g><g transform="translate(691,760.0) rotate(-90)"><text x="0" y="0" font-family="IBM Plex Mono, ui-monospace, Menlo, monospace" font-size="14" letter-spacing="1.5" fill="#E86C3B" fill-opacity=".68" text-anchor="middle">840</text></g>
<text x="46" y="972" font-family="IBM Plex Mono, ui-monospace, Menlo, monospace" font-size="13" letter-spacing="2" fill="#2B2D2A" fill-opacity=".4" text-anchor="start">IL. 12 — SZKIC POGLĄDOWY / DEMO</text>
</svg>